# xmcd
#
# Track frame offsets: 
#        150
#        11789
#        25198
#        36496
#        47376
#        57462
#        70606
#        82043
#        92686
#        105481
#        118200
#        131436
#
# Disc length: 1912 seconds
#
# Revision: 0
# Processed by: cddbd v1.5.1PL2 Copyright (c) Steve Scherf et al.
# Submitted via: ExactAudioCopy v0.95b4
#
DISCID=9c07760c
DTITLE=Ernest Lord Ransom - Country Women City Ladies and Beer
DYEAR=1900
DGENRE=Country
TTITLE0=Country Women, City Ladies and Beer
TTITLE1=Almost In Love
TTITLE2=Howlin' Hound Dog Blues
TTITLE3=Walkin' a Crooked Straight Line Again
TTITLE4=Another One Night Stand
TTITLE5=I Think I'm Thinking About Cheating On You
TTITLE6=Friday Night Thang
TTITLE7=You're More Woman Than a Lady Could Ever Be
TTITLE8=Things I Don't Want to Know
TTITLE9=There's More to Love than Making Love
TTITLE10=It's Not Over 'till It's Over
TTITLE11=Honky Tonk Anthem
EXTD=
EXTT0=
EXTT1=
EXTT2=
EXTT3=
EXTT4=
EXTT5=
EXTT6=
EXTT7=
EXTT8=
EXTT9=
EXTT10=
EXTT11=
PLAYORDER=
